<svg width="47" height="25" viewBox="0 0 47 25" fill="none" xmlns="http://www.w3.org/2000/svg">
<path d="M12.833 11.8682V21.9734C12.833 22.6434 13.114 23.286 13.6141 23.7598C14.1142 24.2336 14.7924 24.4997 15.4997 24.4997H31.4997C32.2069 24.4997 32.8852 24.2336 33.3853 23.7598C33.8854 23.286 34.1663 22.6434 34.1663 21.9734V11.8682" stroke="black" stroke-linecap="round" stroke-linejoin="round"/>
<path d="M23.5 4.92105C23.5 3.74852 23.0083 2.624 22.1332 1.7949C21.258 0.965788 20.071 0.5 18.8333 0.5C17.9493 0.5 17.1014 0.832706 16.4763 1.42493C15.8512 2.01715 15.5 2.82037 15.5 3.65789C15.5 4.49542 15.8512 5.29864 16.4763 5.89086C17.1014 6.48308 17.9493 6.81579 18.8333 6.81579H23.5M23.5 4.92105V6.81579M23.5 4.92105C23.5 3.74852 23.9917 2.624 24.8668 1.7949C25.742 0.965788 26.929 0.5 28.1667 0.5C29.0507 0.5 29.8986 0.832706 30.5237 1.42493C31.1488 2.01715 31.5 2.82037 31.5 3.65789C31.5 4.0726 31.4138 4.48324 31.2463 4.86637C31.0787 5.2495 30.8332 5.59763 30.5237 5.89086C30.2142 6.1841 29.8467 6.41671 29.4423 6.57541C29.0379 6.73411 28.6044 6.81579 28.1667 6.81579H23.5" stroke="black" stroke-linejoin="round"/>
<path d="M23.5 11.8681V24.4996M11.5 6.81543H35.5V11.8681H11.5V6.81543Z" stroke="black" stroke-linecap="round" stroke-linejoin="round"/>
</svg>
