<svg width="25" height="25" viewBox="0 0 25 25" fill="none" xmlns="http://www.w3.org/2000/svg">
<path d="M0.5 21.5C0.5 19.9087 1.13214 18.3826 2.25736 17.2574C3.38258 16.1321 4.9087 15.5 6.5 15.5H18.5C20.0913 15.5 21.6174 16.1321 22.7426 17.2574C23.8679 18.3826 24.5 19.9087 24.5 21.5C24.5 22.2956 24.1839 23.0587 23.6213 23.6213C23.0587 24.1839 22.2956 24.5 21.5 24.5H3.5C2.70435 24.5 1.94129 24.1839 1.37868 23.6213C0.81607 23.0587 0.5 22.2956 0.5 21.5Z" stroke="black" stroke-linejoin="round"/>
<path d="M12.5 9.5C14.9853 9.5 17 7.48528 17 5C17 2.51472 14.9853 0.5 12.5 0.5C10.0147 0.5 8 2.51472 8 5C8 7.48528 10.0147 9.5 12.5 9.5Z" stroke="black"/>
</svg>
