<svg width="58" height="58" viewBox="0 0 58 58" fill="none" xmlns="http://www.w3.org/2000/svg">
<rect width="58" height="58" rx="29" fill="#476489"/>
<path d="M28.9999 15.6152C29.4436 15.6152 29.8691 15.7915 30.1829 16.1053C30.4967 16.419 30.6729 16.8446 30.6729 17.2883V27.3268H40.7114C41.1551 27.3268 41.5807 27.503 41.8944 27.8168C42.2082 28.1306 42.3845 28.5561 42.3845 28.9999C42.3845 29.4436 42.2082 29.8691 41.8944 30.1829C41.5807 30.4967 41.1551 30.6729 40.7114 30.6729H30.6729V40.7114C30.6729 41.1551 30.4967 41.5807 30.1829 41.8944C29.8691 42.2082 29.4436 42.3845 28.9999 42.3845C28.5561 42.3845 28.1306 42.2082 27.8168 41.8944C27.503 41.5807 27.3268 41.1551 27.3268 40.7114V30.6729H17.2883C16.8446 30.6729 16.419 30.4967 16.1053 30.1829C15.7915 29.8691 15.6152 29.4436 15.6152 28.9999C15.6152 28.5561 15.7915 28.1306 16.1053 27.8168C16.419 27.503 16.8446 27.3268 17.2883 27.3268H27.3268V17.2883C27.3268 16.8446 27.503 16.419 27.8168 16.1053C28.1306 15.7915 28.5561 15.6152 28.9999 15.6152Z" fill="#FDFAF8"/>
</svg>
